<?xml version="1.0" encoding="UTF-8"?>
<svg version="1.1" xmlns="http://www.w3.org/2000/svg" width="1254" height="1254">
<path d="M0 0 C413.82 0 827.64 0 1254 0 C1254 413.82 1254 827.64 1254 1254 C840.18 1254 426.36 1254 0 1254 C0 840.18 0 426.36 0 0 Z " fill="#FDFDFD" transform="translate(0,0)"/>
<path d="M0 0 C0.86092103 -0.01158677 1.72184206 -0.02317354 2.60885161 -0.03511143 C5.50554455 -0.07130204 8.40215936 -0.09299522 11.29899597 -0.11450195 C13.3720979 -0.13685054 15.44519261 -0.15987713 17.51828003 -0.18353271 C24.3437643 -0.25674894 31.16932288 -0.30713685 37.99504089 -0.3527832 C39.15826299 -0.36067493 40.3214851 -0.36856667 41.51995635 -0.37669754 C52.5052221 -0.44960005 63.49051388 -0.51245757 74.47594166 -0.55491638 C88.49436301 -0.60990461 102.5107427 -0.71107065 116.52831441 -0.87586498 C126.3995286 -0.98794216 136.27019375 -1.04546062 146.14202136 -1.0638628 C152.02795016 -1.07631093 157.91148844 -1.11193186 163.79671669 -1.20663452 C210.10163497 -1.91831236 210.10163497 -1.91831236 225.81948376 12.67683792 C228.56207291 15.14324246 231.55115166 16.96414978 234.69035339 18.89331055 C236.66131018 20.18489978 238.63137854 21.47784588 240.60050964 22.7722168 C242.80355127 24.21635441 245.00667797 25.66036225 247.20988464 27.10424805 C248.28818542 27.81145996 249.36648621 28.51867187 250.47746277 29.24731445 C255.43004522 32.49260722 260.3900074 35.72654748 265.35050964 38.9597168 C267.23592918 40.18887905 269.12134586 41.41804571 271.00675964 42.6472168 C272.40088074 43.55600586 272.40088074 43.55600586 273.82316589 44.4831543 C276.71806464 46.37061235 279.61248194 48.25880658 282.50675964 50.1472168 C290.63711841 55.45166016 298.76771551 60.75563344 306.9103241 66.04125977 C316.64561877 72.36085448 326.35703594 78.71632092 336.06312561 85.08062744 C344.42976715 90.5662907 352.80566223 96.03710367 361.19816589 101.4831543 C368.02991998 105.91819466 374.84733512 110.37501709 381.66300964 114.8347168 C390.18541329 120.41090611 398.71504795 125.97565076 407.25675964 131.5222168 C414.54574433 136.25593544 421.82514978 141.00426863 429.10392761 145.75366211 C435.22338676 149.74581723 441.34761181 153.73053007 447.47550964 157.7097168 C455.15166665 162.69523816 462.81563655 167.69921624 470.47550964 172.7097168 C479.01553468 178.29556589 487.5555962 183.88134731 496.10050964 189.4597168 C497.00454529 190.05059082 497.90858093 190.64146484 498.8400116 191.25024414 C505.08484135 195.32540255 511.36679691 199.33950489 517.66300964 203.3347168 C526.18133602 208.75810493 534.63092812 214.27385853 543.01847839 219.8972168 C545.42979742 221.51377228 547.84883097 223.11750476 550.27629089 224.7097168 C551.37328308 225.4315918 552.47027527 226.1534668 553.60050964 226.8972168 C554.57890808 227.53788086 555.55730652 228.17854492 556.56535339 228.83862305 C557.25757996 229.33233398 557.94980652 229.82604492 558.66300964 230.3347168 C558.66300964 230.6647168 558.66300964 230.9947168 558.66300964 231.3347168 C244.17300964 231.3347168 -70.31699036 231.3347168 -394.33699036 231.3347168 C-391.13546663 228.13319307 -389.01391887 226.36496075 -385.22370911 224.19799805 C-384.22146301 223.61985352 -383.21921692 223.04170898 -382.18659973 222.44604492 C-381.14310364 221.85243164 -380.09960754 221.25881836 -379.02449036 220.6472168 C-376.98610283 219.47773625 -374.94835176 218.30714572 -372.91120911 217.13549805 C-371.85184143 216.52657715 -370.79247375 215.91765625 -369.70100403 215.2902832 C-365.47231127 212.83206207 -361.27961369 210.31702717 -357.08952332 207.79377747 C-352.68885992 205.14390923 -348.277501 202.51304448 -343.85652161 199.8972168 C-342.59260448 199.14900904 -341.32868848 198.40079938 -340.06477356 197.65258789 C-339.42706024 197.27511414 -338.78934692 196.89764038 -338.13230896 196.50872803 C-327.09719069 189.97492168 -316.09677903 183.38962037 -305.14949036 176.7097168 C-295.60076372 170.88386845 -285.99570102 165.16385288 -276.33699036 159.5222168 C-275.72265137 159.16335388 -275.10831238 158.80449097 -274.47535706 158.43475342 C-273.86685913 158.07931458 -273.25836121 157.72387573 -272.63142395 157.35766602 C-260.1761955 150.08168615 -247.81027724 142.66522556 -235.48542786 135.1706543 C-234.88724747 134.80691711 -234.28906708 134.44317993 -233.67276001 134.06842041 C-233.06897018 133.70125916 -232.46518036 133.3340979 -231.84309387 132.95581055 C-231.23442474 132.58568848 -230.62575562 132.21556641 -229.99864197 131.83422852 C-228.76655342 131.08496707 -227.53451804 130.33561821 -226.30253601 129.58618164 C-218.88045824 125.07236021 -211.43892153 120.5982008 -203.93269348 116.2253418 C-199.45321614 113.60535309 -195.00835239 110.93078424 -190.57527161 108.2331543 C-189.96766998 107.8634552 -189.36006836 107.4937561 -188.73405457 107.112854 C-185.70644951 105.26952383 -182.6807547 103.42313181 -179.65730286 101.57299805 C-172.71041313 97.33048926 -165.69965655 93.22421557 -158.6209259 89.20581055 C-153.9957842 86.5705354 -149.41435114 83.8643716 -144.83699036 81.1472168 C-142.93075698 80.01828247 -141.02450649 78.88937705 -139.11824036 77.76049805 C-137.6815802 76.9089917 -137.6815802 76.9089917 -136.21589661 76.0402832 C-131.59204394 73.30094851 -126.96440543 70.56802787 -122.33699036 67.8347168 C-116.91800502 64.63330723 -111.49939952 61.43126688 -106.08308411 58.2253418 C-98.19226679 53.55638321 -90.29846074 48.89298012 -82.38386536 44.2644043 C-79.93070317 42.82957202 -77.47755171 41.39472146 -75.02449036 39.9597168 C-74.40980896 39.60013885 -73.79512756 39.24056091 -73.16181946 38.87008667 C-63.56316428 33.25231664 -54.013181 27.55795832 -44.48762512 21.81689453 C-35.99215416 16.70533501 -27.43865517 11.6971387 -18.86116028 6.72460938 C-17.91732483 6.17699951 -16.97348938 5.62938965 -16.00105286 5.06518555 C-14.75509338 4.34431763 -14.75509338 4.34431763 -13.48396301 3.60888672 C-8.60387991 0.71269003 -5.6440452 0.02598334 0 0 Z " fill="#2C6399" transform="translate(524.3369903564453,645.665283203125)"/>
<path d="M0 0 C2.88677748 2.75616238 4.68864824 5.64437621 6.6953125 9.109375 C7.04383774 9.70789276 7.39236298 10.30641052 7.75144958 10.92306519 C8.49487374 12.20088516 9.23620432 13.47992508 9.97561646 14.7600708 C11.52176191 17.43691439 13.07785941 20.10792278 14.63337708 22.77932739 C15.39806348 24.09287838 16.16221806 25.40673912 16.92582703 26.72091675 C19.43792106 31.0433312 21.97927302 35.34479936 24.5625 39.625 C34.4565103 56.02518827 44.16275039 72.54095355 53.85986328 89.05810547 C68.05252835 113.27368306 68.05252835 113.27368306 82.4375 137.375 C87.41977432 145.64311244 92.25933899 153.99436006 97.1171875 162.3359375 C101.27750611 169.47920669 105.44750034 176.6167674 109.625 183.75 C110.16442734 184.67135742 110.16442734 184.67135742 110.7147522 185.61132812 C115.77119171 194.24426669 120.86856065 202.85131707 126.07080078 211.39746094 C128.44035087 215.3100761 130.70045747 219.25835877 132.87109375 223.28515625 C136.18435605 229.41030043 139.76535111 235.35861959 143.375 241.3125 C147.9241844 248.85371757 152.41599211 256.40926248 156.74609375 264.078125 C159.58187319 269.05393656 162.53287955 273.96205527 165.46276855 278.88278198 C171.81865828 289.5586496 178.05924634 300.29230124 184.19995117 311.09332275 C188.56550352 318.77000871 192.98460053 326.41031582 197.5 334 C204.52995194 345.82260248 211.33426841 357.77181251 218.13671875 369.72607422 C220.77474222 374.36128056 223.41749786 378.99377303 226.0625 383.625 C226.53510254 384.45281982 227.00770508 385.28063965 227.49462891 386.13354492 C231.45332258 393.06025952 235.44490805 399.96778552 239.4375 406.875 C244.77552829 416.11232827 250.06112209 425.37732757 255.29882812 434.671875 C258.82065875 440.92042357 262.37027465 447.15227191 265.9375 453.375 C273.31940312 466.26436628 280.54875498 479.23888297 287.79101562 492.20703125 C294.38848887 504.01758992 301.01528425 515.80859346 307.74487305 527.54443359 C311.26565994 533.69243649 314.72407756 539.87242777 318.15258789 546.07226562 C321.46092993 552.04828871 324.81904158 557.99518868 328.1875 563.9375 C333.64920799 573.57638064 339.0390707 583.25376864 344.40844727 592.94433594 C348.44096494 600.21501671 352.51720753 607.45913146 356.625 614.6875 C361.03373034 622.44971886 365.33206664 630.2642572 369.5625 638.125 C373.55133454 645.53614413 377.61094604 652.89479771 381.8125 660.1875 C388.6834513 672.11698181 395.30487678 684.18220559 401.93554688 696.24609375 C404.95215315 701.73328848 407.97878996 707.2149464 411.00485229 712.69692993 C412.00100124 714.50181411 412.99678133 716.30690126 413.99243164 718.11206055 C417.01822827 723.59783563 420.04515959 729.0829732 423.076828 734.56550598 C424.7810137 737.64749016 426.4843338 740.72995234 428.1875 743.8125 C428.51867828 744.41170258 428.84985657 745.01090515 429.19107056 745.62826538 C434.44151734 755.13127313 439.63297217 764.66529454 444.75268555 774.23950195 C447.36554731 779.09960614 450.06738155 783.82539181 453.1105957 788.43041992 C454 790 454 790 454 792 C449.74766276 790.51128603 446.24368691 788.29021064 442.5625 785.75 C435.09026788 780.67703853 427.48858633 775.8230016 419.85375977 770.99902344 C414.95273248 767.89745657 410.09125575 764.74974777 405.27441406 761.51904297 C401.06122226 758.70512289 396.80884367 755.95102299 392.5625 753.1875 C383.97332414 747.59223339 375.39047231 741.98742664 366.8125 736.375 C358.35211854 730.84067667 349.88445489 725.31785984 341.40551758 719.81201172 C334.11676158 715.07847964 326.83761412 710.33028781 319.55908203 705.58105469 C313.43962294 701.5888996 307.31541256 697.604164 301.1875 693.625 C292.88401489 688.23242971 284.59618259 682.81607958 276.3112793 677.39501953 C269.27776304 672.79300585 262.23834131 668.20042115 255.1875 663.625 C246.94256145 658.27398028 238.71969259 652.88967235 230.5 647.5 C220.63750747 641.03326493 210.76324545 634.58537293 200.87109375 628.1640625 C195.47160175 624.6586447 190.07924472 621.14231866 184.6875 617.625 C183.72884033 616.99964355 182.77018066 616.37428711 181.7824707 615.72998047 C177.87601316 613.18150846 173.9697493 610.63273965 170.06347656 608.08398438 C147.75424221 593.51983178 147.75424221 593.51983178 125.3984375 579.02734375 C124.6564209 578.54813477 123.9144043 578.06892578 123.14990234 577.57519531 C121.794001 576.70000303 120.4376209 575.82555161 119.08056641 574.95214844 C117.79140205 574.12019352 116.50780151 573.27956791 115.22924805 572.43139648 C113.55698659 571.35764017 111.84846649 570.34001165 110.12426758 569.35180664 C101.71034717 564.2910158 97.399158 558.53173076 92.6875 550.0625 C91.9657405 548.8149632 91.24115388 547.56905824 90.51391602 546.32470703 C89.03473344 543.78666073 87.56933887 541.24145827 86.11523438 538.68896484 C82.97920893 533.19734608 79.70352658 527.78993345 76.4375 522.375 C75.52629395 520.85362427 75.52629395 520.85362427 74.59667969 519.30151367 C69.43602676 510.68655274 64.18054429 502.13158706 58.90771484 493.58496094 C52.22440436 482.75198866 45.60562676 471.88046791 39 461 C37.99235596 459.34049316 37.99235596 459.34049316 36.96435547 457.64746094 C34.08810085 452.91040643 31.21213525 448.17317649 28.33642578 443.43579102 C23.70681021 435.80931669 19.07468969 428.18437209 14.4375 420.5625 C13.90253906 419.68271484 13.36757813 418.80292969 12.81640625 417.89648438 C12.03910156 416.6193457 12.03910156 416.6193457 11.24609375 415.31640625 C10.76354488 414.50545728 10.28099601 413.69450831 9.78382444 412.85898513 C8.02797263 409.9664381 8.02797263 409.9664381 5.96682024 407.22189265 C-0.22884699 398.36857265 -1.13101226 390.97662499 -0.96203613 380.36503601 C-0.96553151 378.71625979 -0.97254858 377.06748798 -0.98274946 375.41873962 C-1.00052173 370.9211068 -0.96880376 366.42501649 -0.92852497 361.92758 C-0.89381643 357.06546222 -0.90567953 352.20342394 -0.91174316 347.34121704 C-0.91592792 338.92817947 -0.89093436 330.51564015 -0.84584045 322.10272789 C-0.78068619 309.93931914 -0.75997486 297.77615009 -0.74993652 285.61258576 C-0.73244902 265.87578341 -0.67926814 246.13924631 -0.60351562 226.40258789 C-0.5300276 207.23593468 -0.47342758 188.06935364 -0.43945312 168.90258789 C-0.43735134 167.72016605 -0.43524955 166.53774421 -0.43308407 165.31949141 C-0.42264339 159.38733382 -0.41253382 153.45517572 -0.40258884 147.52301729 C-0.31972213 98.34849492 -0.17887569 49.17426043 0 0 Z " fill="#84B9DF" transform="translate(628,83)"/>
<path d="M0 0 C8.17733754 5.11489971 15.15414307 12.70970638 17.82421875 22.15625 C20.36894476 36.55141574 19.15809057 49.46977202 10.63671875 61.65625 C7.60475562 65.36368846 4.44820286 68.54114832 0.51171875 71.28125 C-0.18695312 71.76980469 -0.885625 72.25835938 -1.60546875 72.76171875 C-10.89994343 78.06224185 -24.26285646 78.3356552 -34.546875 75.76708984 C-38.22923123 74.46678298 -41.34325008 72.56520419 -44.48828125 70.28125 C-45.16761719 69.81332031 -45.84695313 69.34539062 -46.546875 68.86328125 C-54.92170324 62.43357441 -58.78852459 53.38932329 -61.17578125 43.40625 C-62.41616485 31.00241401 -60.70651761 19.57883496 -53.18359375 9.27734375 C-39.34195987 -7.02006388 -18.34130933 -10.59281722 0 0 Z " fill="#081D49" transform="translate(701.48828125,980.71875)"/>
<path d="M0 0 C41.1664604 0 41.1664604 0 49.59765625 8.328125 C54.90118102 14.65099018 55.65594938 20.37598054 55.375 28.59375 C54.4679275 36.83299189 51.1449445 41.50111224 44.90234375 46.78515625 C43 48 43 48 40 48 C44.35044955 56.31928071 49.15948646 64.33764469 54.03613281 72.35644531 C54.54756836 73.20045898 55.05900391 74.04447266 55.5859375 74.9140625 C56.0504834 75.6767041 56.5150293 76.4393457 56.99365234 77.22509766 C58 79 58 79 58 80 C55.61877077 80.24539385 53.26284078 80.42164422 50.875 80.5625 C49.87726563 80.67561523 49.87726563 80.67561523 48.859375 80.79101562 C46.8671875 80.87890625 46.8671875 80.87890625 43 80 C39.140568 76.04468149 36.91021891 70.87939726 34.4296875 66 C34.006875 65.17628906 33.5840625 64.35257813 33.1484375 63.50390625 C32.29152111 61.81898784 31.46631232 60.11760615 30.671875 58.40234375 C29.26531744 55.52758699 29.26531744 55.52758699 26 52 C22.04 51.67 18.08 51.34 14 51 C14 60.57 14 70.14 14 80 C9.38 80 4.76 80 0 80 C0 53.6 0 27.2 0 0 Z " fill="#0C204B" transform="translate(177,976)"/>
<path d="M0 0 C4.62 0 9.24 0 14 0 C17.08810771 3.17595322 18.33594257 4.911408 20.125 8.75 C21.0923374 10.57496821 22.06113347 12.39916385 23.03125 14.22265625 C23.51207031 15.17027832 23.99289062 16.11790039 24.48828125 17.09423828 C26.99574058 21.91397034 29.81595439 26.53939012 32.625 31.1875 C33.13434082 32.05407227 33.64368164 32.92064453 34.16845703 33.81347656 C34.64138184 34.61108398 35.11430664 35.40869141 35.6015625 36.23046875 C36.01744629 36.93582764 36.43333008 37.64118652 36.86181641 38.36791992 C37.91656341 40.15737718 37.91656341 40.15737718 40 41 C40.23976563 40.32195313 40.47953125 39.64390625 40.7265625 38.9453125 C42.27629544 35.36096085 44.27909369 32.15560233 46.375 28.875 C47.02069946 27.85394165 47.02069946 27.85394165 47.67944336 26.81225586 C48.613621 25.33556666 49.54948054 23.85994043 50.48681641 22.38525391 C52.09607414 19.84855689 53.69538206 17.30578076 55.29296875 14.76171875 C56.38268393 13.02856499 57.47252541 11.29549063 58.5625 9.5625 C59.0869873 8.7276709 59.61147461 7.8928418 60.15185547 7.03271484 C60.63928223 6.26008301 61.12670898 5.48745117 61.62890625 4.69140625 C62.06275635 4.00248291 62.49660645 3.31355957 62.94360352 2.60375977 C64 1 64 1 65 0 C69.29 0 73.58 0 78 0 C78 26.07 78 52.14 78 79 C73.71 79 69.42 79 65 79 C64.67 61.51 64.34 44.02 64 26 C61.69 29.96 59.38 33.92 57 38 C54.78409545 41.63439016 52.55971683 45.26025976 50.3125 48.875 C49.75755859 49.7721875 49.20261719 50.669375 48.63085938 51.59375 C45.82679485 56.11492895 42.98626195 60.59689844 40 65 C36.49595328 63.83198443 36.25571469 63.23728458 34.46875 60.16015625 C33.98664062 59.34224609 33.50453125 58.52433594 33.0078125 57.68164062 C32.51023437 56.81732422 32.01265625 55.95300781 31.5 55.0625 C25.79104689 45.2926203 19.90451767 35.66193801 14 26 C13.67 43.49 13.34 60.98 13 79 C8.71 79 4.42 79 0 79 C0 52.93 0 26.86 0 0 Z " fill="#081C49" transform="translate(736,977)"/>
<path d="M0 0 C14 0 14 0 17.1328125 3.015625 C18.17773438 5.03027344 18.17773438 5.03027344 19.125 7.25 C19.90554444 8.80375043 20.68955783 10.3557618 21.4765625 11.90625 C22.07452637 13.14375 22.07452637 13.14375 22.68457031 14.40625 C25.02042159 19.01205623 27.78872321 23.3584611 30.5 27.75 C36.45679002 37.48059934 36.45679002 37.48059934 38 42 C38.66 42 39.32 42 40 42 C40.23976563 41.15695312 40.47953125 40.31390625 40.7265625 39.4453125 C42.43728628 34.81691257 45.02627039 30.93811166 47.70800781 26.8359375 C50.30684578 22.81475023 52.6692539 18.78004134 54.8359375 14.5078125 C55.32143066 13.59273926 55.80692383 12.67766602 56.30712891 11.73486328 C57.25115447 9.94552752 58.15406735 8.13373852 59.00927734 6.30029297 C60.359375 3.8125 60.359375 3.8125 64 0 C68.62 0 73.24 0 78 0 C78 26.07 78 52.14 78 79 C73.71 79 69.42 79 65 79 C64.67 61.51 64.34 44.02 64 26 C61.69 29.96 59.38 33.92 57 38 C54.97472892 41.26265616 52.94054936 44.51343053 50.875 47.75 C49.8722222 49.32801468 48.86961627 50.90613858 47.8671875 52.484375 C47.39120117 53.23267578 46.91521484 53.98097656 46.42480469 54.75195312 C44.26639219 58.15748128 42.13120805 61.57739952 40 65 C36.07647869 63.69215956 35.57506511 62.14161903 33.453125 58.63671875 C32.7725 57.52103516 32.091875 56.40535156 31.390625 55.25585938 C30.67696361 54.06647808 29.96342241 52.87702466 29.25 51.6875 C28.55285446 50.54054656 27.85494497 49.3940571 27.15625 48.24804688 C22.68048214 40.88271073 18.34359349 33.44616026 14 26 C13.67 43.49 13.34 60.98 13 79 C8.71 79 4.42 79 0 79 C0 52.93 0 26.86 0 0 Z " fill="#061B47" transform="translate(354,977)"/>
<path d="M0 0 C36.80931264 0 36.80931264 0 43.4609375 4.76171875 C47.80358929 9.13095821 50.50641701 12.70681686 51 19 C51.1546875 20.61648438 51.1546875 20.61648438 51.3125 22.265625 C51.6930056 29.59035785 51.07031096 34.83001495 46.8671875 40.93359375 C44.01255926 44.0927953 40.81601361 46.15979039 37 48 C42.36318785 57.54229526 47.92487493 66.88731239 54 76 C54 76.99 54 77.98 54 79 C41.60642843 80.20749276 41.60642843 80.20749276 38.23828125 77.67578125 C36.94922875 75.51831444 36.00147273 73.30579632 35 71 C33.66879097 68.79306691 32.32113157 66.61062096 30.9375 64.4375 C28.73411747 60.92432897 26.79199064 57.56459784 25.1875 53.75 C24.465625 52.8425 23.74375 51.935 23 51 C19.37 50.67 15.74 50.34 12 50 C12 59.57 12 69.14 12 79 C8.04 79 4.08 79 0 79 C0 52.93 0 26.86 0 0 Z " fill="#061A46" transform="translate(1104,977)"/>
<path d="M0 0 C39.65920398 0 39.65920398 0 48.4921875 8.2578125 C53.81833218 14.41185532 54.59808276 20.96983303 54.3203125 28.9140625 C53.62459022 35.61675276 51.25998826 41.5630031 46 46 C35.67491462 53.80197093 25.44419397 52.47862285 13 52 C13 60.91 13 69.82 13 79 C8.71 79 4.42 79 0 79 C0 52.93 0 26.86 0 0 Z " fill="#081C47" transform="translate(107,977)"/>
<path d="M0 0 C1.93166016 0.01740234 1.93166016 0.01740234 3.90234375 0.03515625 C5.19269531 0.04417969 6.48304688 0.05320312 7.8125 0.0625 C8.81152344 0.07410156 9.81054688 0.08570313 10.83984375 0.09765625 C13.94108416 7.18432052 16.64333336 14.30984421 19.03173828 21.65942383 C20.47779185 26.0846208 22.09601077 30.39359931 23.87109375 34.6953125 C25.2894893 38.21270469 26.54841113 41.78411936 27.8125 45.359375 C28.58507588 47.41859816 29.42816453 49.45157847 30.3046875 51.46875 C31.83910259 55.09590425 33.11590985 58.73024297 34.33984375 62.47265625 C34.55342529 63.12242432 34.76700684 63.77219238 34.98706055 64.44165039 C35.60655398 66.32636254 36.2232608 68.21198994 36.83984375 70.09765625 C37.44258081 71.91063216 38.04645445 73.72323137 38.65234375 75.53515625 C39.04421875 76.71078125 39.43609375 77.88640625 39.83984375 79.09765625 C34.88984375 79.09765625 29.93984375 79.09765625 24.83984375 79.09765625 C20.83984375 67.47265625 20.83984375 67.47265625 20.83984375 64.09765625 C9.28984375 64.09765625 -2.26015625 64.09765625 -14.16015625 64.09765625 C-14.82015625 67.06765625 -15.48015625 70.03765625 -16.16015625 73.09765625 C-16.82015625 75.07765625 -17.48015625 77.05765625 -18.16015625 79.09765625 C-22.78015625 79.09765625 -27.40015625 79.09765625 -32.16015625 79.09765625 C-30.58250788 70.4157508 -27.45770205 62.37956301 -24.34765625 54.16015625 C-23.77273768 52.62855842 -23.19819964 51.0968177 -22.62402344 49.56494141 C-21.11967824 45.55803046 -19.60656445 41.55449557 -18.09002686 37.55218506 C-17.1565616 35.08816765 -16.22486244 32.62348809 -15.29345703 30.15869141 C-13.50474222 25.42783159 -11.70871687 20.69978019 -9.91015625 15.97265625 C-9.62635101 15.2249295 -9.34254578 14.47720276 -9.05014038 13.70681763 C-8.25117355 11.60420446 -7.44849753 9.50304953 -6.64453125 7.40234375 C-5.95955566 5.60772705 -5.95955566 5.60772705 -5.26074219 3.77685547 C-3.75694293 0.11609836 -3.75694293 0.11609836 0 0 Z " fill="#0A1F4B" transform="translate(480.16015625,976.90234375)"/>
<path d="M0 0 C35.48148148 0 35.48148148 0 44.75 5.6875 C50.41612218 11.51101447 52.49431037 16.82387418 52.5625 25 C52.42255419 32.95573542 50.71255256 38.48963786 45.875 44.75 C35.11616095 53.16996099 26.36274847 52.44542495 13 52 C13 60.91 13 69.82 13 79 C8.71 79 4.42 79 0 79 C0 52.93 0 26.86 0 0 Z " fill="#061C48" transform="translate(833,977)"/>
<path d="M0 0 C7.58396911 4.01753011 12.33654604 10.0902007 15.1015625 18.11328125 C16.22496839 28.69419715 14.58267792 37.34768384 9.1015625 46.42578125 C3.65870631 52.13495456 -4.23549995 55.44906794 -12.0234375 55.80078125 C-20.18658724 55.32059597 -26.33422538 52.17241727 -31.8359375 46.17578125 C-37.03293482 39.95726112 -38.40434038 34.64814183 -38.3359375 26.73828125 C-38.35591797 25.92617188 -38.37589844 25.1140625 -38.39648438 24.27734375 C-38.39077837 17.15624511 -36.48147211 12.02976214 -31.75 6.6875 C-21.93217342 -1.63181621 -12.62391729 -4.84299372 0 0 Z " fill="#FAFAFB" transform="translate(691.8984375,989.88671875)"/>
<path d="M0 0 C4.29 0 8.58 0 13 0 C13.11367495 7.35494398 13.20509852 14.70939532 13.25906086 22.06503677 C13.28498093 25.48184507 13.32004722 28.89801316 13.37719727 32.31445312 C13.44271385 36.25642815 13.46632587 40.19815833 13.48828125 44.140625 C13.51408768 45.34736877 13.5398941 46.55411255 13.56648254 47.79742432 C13.5694566 56.93482626 12.0337533 65.50042421 5.75679016 72.5022583 C-2.60802887 80.35607329 -10.39312717 82.40047261 -21.6484375 82.2734375 C-30.39701336 81.55968423 -37.21714444 77.47479113 -43 71 C-48.35867166 63.27857273 -48.67594686 56.06713861 -48.48828125 46.8984375 C-48.48120651 45.58082428 -48.47413177 44.26321106 -48.46684265 42.90567017 C-48.4479338 39.43649096 -48.39897933 35.968392 -48.34332275 32.49963379 C-48.29177656 28.94651902 -48.26925397 25.39322625 -48.24414062 21.83984375 C-48.19083886 14.89274606 -48.10304082 7.94653642 -48 1 C-43.71 1 -39.42 1 -35 1 C-34.98541748 2.62945557 -34.97083496 4.25891113 -34.95581055 5.93774414 C-34.89773638 11.99672126 -34.82050298 18.05533031 -34.73754883 24.11401367 C-34.70434257 26.73374447 -34.67629734 29.35354606 -34.65356445 31.97338867 C-34.61994046 35.74428411 -34.56761804 39.51453322 -34.51171875 43.28515625 C-34.50532883 44.45208511 -34.4989389 45.61901398 -34.49235535 46.82130432 C-34.38205993 52.95404935 -34.06551684 57.62695661 -31 63 C-25.67326567 67.93697329 -22.09173271 68.34470614 -14.98828125 68.28515625 C-10.06242122 67.81510686 -7.46621171 65.62330582 -4.25 62.0625 C-1.70272557 57.85949718 -0.74879499 54.28763683 -0.68115234 49.38354492 C-0.66128265 48.28278122 -0.64141296 47.18201752 -0.62094116 46.04789734 C-0.60938995 44.8706459 -0.59783875 43.69339447 -0.5859375 42.48046875 C-0.56657135 41.26676102 -0.5472052 40.05305328 -0.5272522 38.80256653 C-0.46753429 34.93094889 -0.42110145 31.05930139 -0.375 27.1875 C-0.33681312 24.560534 -0.29776098 21.93358043 -0.2578125 19.30664062 C-0.16183884 12.87119482 -0.07777842 6.4356904 0 0 Z " fill="#0B1F4A" transform="translate(948,976)"/>
<path d="M0 0 C15.84 0 31.68 0 48 0 C48 3.96 48 7.92 48 12 C36.45 12 24.9 12 13 12 C13 18.93 13 25.86 13 33 C22.9 33 32.8 33 43 33 C43 36.96 43 40.92 43 45 C33.1 45 23.2 45 13 45 C13 52.26 13 59.52 13 67 C24.55 67 36.1 67 48 67 C48 70.96 48 74.92 48 79 C32.16 79 16.32 79 0 79 C0 52.93 0 26.86 0 0 Z " fill="#091C47" transform="translate(1040,977)"/>
<path d="M0 0 C3.2863535 2.05640167 6.1701355 4.35638985 9 7 C9.57621094 7.5259375 10.15242187 8.051875 10.74609375 8.59375 C12 10 12 10 12 12 C10.03125 13.7265625 10.03125 13.7265625 7.5 15.625 C6.24703125 16.57246094 6.24703125 16.57246094 4.96875 17.5390625 C4.3190625 18.02117188 3.669375 18.50328125 3 19 C2.030625 18.236875 1.06125 17.47375 0.0625 16.6875 C-6.98833483 11.70377739 -14.4355299 10.0144613 -23 11 C-29.57499707 12.33912784 -34.66043349 15.94997349 -39 21 C-44.09676915 28.75968787 -44.03145189 38.07884594 -43 47 C-40.50803877 55.57852141 -35.26928971 60.58342092 -27.6875 64.875 C-19.789641 67.2845163 -12.46335371 66.41792227 -5 63 C-2.23000378 61.44621247 0.36054938 59.77563042 3 58 C7.455 61.465 7.455 61.465 12 65 C8.315069 72.36986199 1.53907402 76.12868831 -6 79 C-9.82039796 79.68749682 -13.50034315 79.76444996 -17.375 79.6875 C-18.88900391 79.67033936 -18.88900391 79.67033936 -20.43359375 79.65283203 C-28.59354507 79.3777627 -34.32668789 77.90884314 -41 73 C-41.67804687 72.54367187 -42.35609375 72.08734375 -43.0546875 71.6171875 C-48.17959929 67.76800483 -51.03151619 62.57766987 -54 57 C-54.41636719 56.32453125 -54.83273437 55.6490625 -55.26171875 54.953125 C-59.9090677 46.53897742 -59.27019677 34.73709677 -56.9375 25.625 C-53.23931707 15.48091879 -46.78007536 6.57139772 -37.15234375 1.5 C-25.15468019 -4.06413383 -12.5323828 -5.08021732 0 0 Z " fill="#0A1E4A" transform="translate(619,978)"/>
<path d="M0 0 C2.46343456 1.72622896 4.70338468 3.53743337 6.94921875 5.53515625 C8.27457164 6.54570931 9.60540333 7.54928715 10.94921875 8.53515625 C10.38788941 12.07230005 9.25364128 13.52777304 6.51171875 15.78515625 C5.58552734 16.56632813 5.58552734 16.56632813 4.640625 17.36328125 C2.94921875 18.53515625 2.94921875 18.53515625 0.94921875 18.53515625 C0.94921875 17.87515625 0.94921875 17.21515625 0.94921875 16.53515625 C0.35109375 16.24640625 -0.24703125 15.95765625 -0.86328125 15.66015625 C-3.05078125 14.53515625 -3.05078125 14.53515625 -6.05078125 12.53515625 C-8.88616554 12.17939289 -8.88616554 12.17939289 -11.98828125 12.22265625 C-13.02855469 12.20589844 -14.06882812 12.18914063 -15.140625 12.171875 C-18.42217193 12.58151777 -19.78853981 13.13952793 -22.05078125 15.53515625 C-22.71777599 17.62902846 -22.71777599 17.62902846 -22.61328125 19.91015625 C-22.63519531 20.66039062 -22.65710938 21.410625 -22.6796875 22.18359375 C-21.71010292 25.80899698 -19.96248064 27.19159332 -17.05078125 29.53515625 C-14.04694218 31.02578855 -10.94086895 32.17775976 -7.80078125 33.34765625 C0.98103405 36.83337679 7.26833082 40.62730568 13.01171875 48.28515625 C14.98038865 55.10987857 15.17830891 61.98992593 11.88671875 68.41015625 C7.80638936 74.71923699 2.81839947 79.00262824 -4.4765625 81.05859375 C-14.47366295 82.90934679 -23.2723354 81.79223407 -32.05078125 76.53515625 C-34.99200687 74.07580067 -37.58004892 71.46370074 -40.05078125 68.53515625 C-38.90204505 65.08894764 -37.97496483 64.44346429 -35.11328125 62.34765625 C-34.40300781 61.81785156 -33.69273437 61.28804687 -32.9609375 60.7421875 C-31.05078125 59.53515625 -31.05078125 59.53515625 -29.05078125 59.53515625 C-28.47328125 60.29828125 -27.89578125 61.06140625 -27.30078125 61.84765625 C-24.01972572 65.76669481 -21.31004391 67.31137582 -16.171875 67.8203125 C-10.49583313 67.98049528 -6.76893123 67.98335855 -2.05078125 64.53515625 C-0.90715013 62.24789402 -0.78576193 60.70663198 -0.67578125 58.16015625 C-0.62679687 57.38929687 -0.5778125 56.6184375 -0.52734375 55.82421875 C-1.33008099 52.31374095 -3.05474082 51.47082201 -6.05078125 49.53515625 C-8.97911423 48.07598935 -11.97029914 46.79654959 -14.98828125 45.53515625 C-24.09380469 41.71068701 -30.86043601 38.34614222 -35.80078125 29.34765625 C-37.84422334 24.15437801 -37.98293139 18.67006595 -36.39453125 13.328125 C-33.47823581 6.75389002 -28.7798425 2.99715335 -22.55078125 -0.33984375 C-15.44574924 -2.60681894 -6.79975622 -3.26492776 0 0 Z " fill="#0B1F4B" transform="translate(324.05078125,976.46484375)"/>
<path d="M0 0 C17.82 0 35.64 0 54 0 C54 3.96 54 7.92 54 12 C47.07 12 40.14 12 33 12 C33 34.11 33 56.22 33 79 C28.71 79 24.42 79 20 79 C20 56.89 20 34.78 20 12 C13.4 12 6.8 12 0 12 C0 8.04 0 4.08 0 0 Z " fill="#071C49" transform="translate(975,977)"/>
<path d="M0 0 C4.29 0 8.58 0 13 0 C13 26.07 13 52.14 13 79 C8.71 79 4.42 79 0 79 C0 52.93 0 26.86 0 0 Z " fill="#071B4A" transform="translate(255,977)"/>
<path d="M0 0 C0 0.66 0 1.32 0 2 C-2.01941146 3.35638993 -4.02084465 4.57600263 -6.1328125 5.7734375 C-7.07699539 6.32096176 -7.07699539 6.32096176 -8.04025269 6.87954712 C-10.0645223 8.05175275 -12.09444489 9.21372227 -14.125 10.375 C-16.13300737 11.53097925 -18.13976491 12.68907306 -20.14547729 13.84902954 C-21.39497865 14.57082146 -22.64597597 15.29003218 -23.89871216 16.00619507 C-27.70463439 18.19466477 -31.36596409 20.53806541 -35 23 C-41.22187277 26.86765064 -47.58200945 30.47070953 -54 34 C-59.24821779 36.91567655 -64.30197211 40.06817404 -69.3515625 43.31640625 C-71.87709558 44.92187049 -74.42819186 46.47004077 -77 48 C-78.11568359 48.67289063 -78.11568359 48.67289063 -79.25390625 49.359375 C-89.22860077 55.36782043 -99.29341445 61.21992451 -109.4375 66.9375 C-111.82693531 68.30289161 -114.17230146 69.71949141 -116.5 71.1875 C-121.49710779 74.33453353 -126.56853893 77.3562543 -131.63671875 80.38671875 C-134.83193055 82.29760257 -138.02066435 84.21893601 -141.20703125 86.14453125 C-142.09487305 86.68005615 -142.98271484 87.21558105 -143.89746094 87.76733398 C-145.64002769 88.81852509 -147.38160708 89.87135514 -149.12207031 90.92602539 C-152.40674724 92.90463971 -155.65597122 94.828638 -159.08984375 96.5390625 C-162.05701053 98.02862005 -164.79960277 99.70135937 -167.59960938 101.47900391 C-172.20379083 104.39642157 -176.85234231 107.24303059 -181.4921875 110.10327148 C-182.67165036 110.83077073 -183.85068177 111.55896991 -185.02929688 112.2878418 C-186.75291086 113.35367326 -188.47786664 114.41730164 -190.203125 115.48046875 C-191.22051758 116.10848389 -192.23791016 116.73649902 -193.28613281 117.38354492 C-195.4934608 118.69829111 -197.68637348 119.88953625 -200 121 C-205.95945525 124.1508407 -211.63607233 127.65462401 -217.30078125 131.3046875 C-220.435376 133.27344889 -223.64327886 135.05760905 -226.89453125 136.82421875 C-228.93663402 137.9646138 -230.90434952 139.17836227 -232.875 140.4375 C-236.88628763 142.98434929 -241.04166681 145.21870721 -245.22265625 147.47265625 C-248.640709 149.3523449 -251.96751737 151.36164321 -255.30078125 153.38671875 C-258.34032633 155.20340778 -261.41702006 156.94556312 -264.5 158.6875 C-269.90013571 161.7488836 -275.21318049 164.93469972 -280.5 168.1875 C-287.31524049 172.37979627 -294.17091784 176.49687219 -301.0625 180.5625 C-301.99191406 181.11091553 -302.92132813 181.65933105 -303.87890625 182.22436523 C-308.14147525 184.7361828 -312.40826845 187.24042398 -316.68359375 189.73046875 C-323.92765696 193.95570219 -331.06536474 198.27773209 -338.08447266 202.86791992 C-343.23398655 206.2111033 -348.55643711 209.16712544 -354 212 C-354 212.99 -354 213.98 -354 215 C-356.31 215 -358.62 215 -361 215 C-358.19708438 211.99102957 -355.45154595 209.90138681 -351.88671875 207.86328125 C-350.88447266 207.28513672 -349.88222656 206.70699219 -348.84960938 206.11132812 C-347.80611328 205.51771484 -346.76261719 204.92410156 -345.6875 204.3125 C-343.64911247 203.14301945 -341.6113614 201.97242893 -339.57421875 200.80078125 C-338.51485107 200.19186035 -337.4554834 199.58293945 -336.36401367 198.95556641 C-332.13532091 196.49734527 -327.94262334 193.98231038 -323.75253296 191.45906067 C-319.35186957 188.80919243 -314.94051064 186.17832769 -310.51953125 183.5625 C-309.25561412 182.81429224 -307.99169812 182.06608259 -306.7277832 181.31787109 C-306.09006989 180.94039734 -305.45235657 180.56292358 -304.7953186 180.17401123 C-293.76020033 173.64020488 -282.75978867 167.05490358 -271.8125 160.375 C-262.26377337 154.54915165 -252.65871067 148.82913608 -243 143.1875 C-242.38566101 142.82863708 -241.77132202 142.46977417 -241.1383667 142.10003662 C-240.52986877 141.74459778 -239.92137085 141.38915894 -239.29443359 141.02294922 C-226.83920514 133.74696935 -214.47328689 126.33050876 -202.1484375 118.8359375 C-201.55025711 118.47220032 -200.95207672 118.10846313 -200.33576965 117.73370361 C-199.73197983 117.36654236 -199.12819 116.9993811 -198.50610352 116.62109375 C-197.89743439 116.25097168 -197.28876526 115.88084961 -196.66165161 115.49951172 C-195.42956307 114.75025028 -194.19752768 114.00090141 -192.96554565 113.25146484 C-185.54346789 108.73764341 -178.10193117 104.26348401 -170.59570312 99.890625 C-166.11622579 97.27063629 -161.67136203 94.59606744 -157.23828125 91.8984375 C-156.63067963 91.5287384 -156.023078 91.15903931 -155.39706421 90.77813721 C-152.36945915 88.93480703 -149.34376434 87.08841501 -146.3203125 85.23828125 C-139.37342277 80.99577246 -132.36266619 76.88949877 -125.28393555 72.87109375 C-120.65879384 70.2358186 -116.07736078 67.5296548 -111.5 64.8125 C-109.59376663 63.68356567 -107.68751614 62.55466025 -105.78125 61.42578125 C-104.34458984 60.5742749 -104.34458984 60.5742749 -102.87890625 59.70556641 C-98.25505358 56.96623171 -93.62741507 54.23331107 -89 51.5 C-83.58101466 48.29859043 -78.16240916 45.09655008 -72.74609375 41.890625 C-64.85527609 37.22166621 -56.96143739 32.55832016 -49.046875 27.9296875 C-48.44672577 27.57861435 -47.84657654 27.2275412 -47.22824097 26.86582947 C-42.19110677 23.91928973 -42.19110677 23.91928973 -39.84698486 22.54946899 C-33.09383267 18.60199537 -26.35789184 14.62943927 -19.6640625 10.58203125 C-18.78930016 10.05370697 -18.78930016 10.05370697 -17.89686584 9.51470947 C-15.12423821 7.83912675 -12.35513983 6.15810031 -9.59057617 4.46923828 C-8.61838135 3.87997559 -7.64618652 3.29071289 -6.64453125 2.68359375 C-5.79221924 2.16337646 -4.93990723 1.64315918 -4.06176758 1.10717773 C-2 0 -2 0 0 0 Z " fill="#59B0EC" transform="translate(491,662)"/>
<path d="M0 0 C10.9625257 -0.32735828 21.92385162 -0.57460357 32.89030647 -0.72537041 C37.98529269 -0.79781166 43.07688761 -0.89568815 48.16992188 -1.05615234 C90.47308807 -2.35358394 90.47308807 -2.35358394 107.00854492 12.27807617 C109.83626637 14.72308284 112.84915092 16.59185325 116.02734375 18.55859375 C117.99830053 19.85018299 119.96836889 21.14312908 121.9375 22.4375 C124.14054163 23.88163761 126.34366832 25.32564546 128.546875 26.76953125 C129.62517578 27.47674316 130.70347656 28.18395508 131.81445312 28.91259766 C136.76703558 32.15789042 141.72699775 35.39183068 146.6875 38.625 C148.57291954 39.85416226 150.45833622 41.08332891 152.34375 42.3125 C153.73787109 43.22128906 153.73787109 43.22128906 155.16015625 44.1484375 C158.05505499 46.03589555 160.9494723 47.92408978 163.84375 49.8125 C171.97410877 55.11694337 180.10470587 60.42091664 188.24731445 65.70654297 C197.98260913 72.02613769 207.6940263 78.38160413 217.40011597 84.74591064 C225.7667575 90.2315739 234.14265259 95.70238687 242.53515625 101.1484375 C249.36691034 105.58347786 256.18432548 110.04030029 263 114.5 C271.52240365 120.07618931 280.05203831 125.64093397 288.59375 131.1875 C295.88273468 135.92121865 303.16214013 140.66955184 310.44091797 145.41894531 C316.56037711 149.41110043 322.68460216 153.39581327 328.8125 157.375 C337.58854192 163.07487619 346.34800318 168.79994027 355.10498047 174.52905273 C363.69124117 180.14608392 372.28377341 185.75340735 380.88012695 191.35498047 C381.7743335 191.93779785 382.66854004 192.52061523 383.58984375 193.12109375 C384.37222412 193.6308374 385.15460449 194.14058105 385.96069336 194.66577148 C387.64617056 195.76850498 389.32411467 196.88274311 391 198 C390.67 198.66 390.34 199.32 390 200 C389.33282959 199.56357178 388.66565918 199.12714355 387.97827148 198.67749023 C385.38643671 196.98215612 382.79452378 195.28694159 380.20254517 193.59182739 C379.02477188 192.82157177 377.84701719 192.0512877 376.66928101 191.28097534 C370.34272148 187.14316863 364.0147716 183.00756221 357.6796875 178.8828125 C356.69758301 178.24327637 355.71547852 177.60374023 354.70361328 176.94482422 C352.78558242 175.69604716 350.86729065 174.44767073 348.94873047 173.19970703 C344.78602001 170.48776009 340.63281283 167.76505461 336.515625 164.984375 C335.83910889 164.52796631 335.16259277 164.07155762 334.46557617 163.60131836 C333.26215397 162.78632595 332.06142448 161.96733065 330.86450195 161.14282227 C326.73804058 158.34493509 322.48124635 156.16016554 318 154 C318 153.34 318 152.68 318 152 C316.02 151.34 314.04 150.68 312 150 C312 149.34 312 148.68 312 148 C311.34 147.773125 310.68 147.54625 310 147.3125 C306.06146437 145.58939066 302.60444303 143.33014499 299 141 C297.08451359 139.76899488 295.16780256 138.53989364 293.25 137.3125 C291.89648438 136.44044922 291.89648438 136.44044922 290.515625 135.55078125 C288.09386241 134.00245703 288.09386241 134.00245703 285.796875 132.91796875 C284 132 284 132 282 130 C279.39853631 128.4305924 276.7605319 126.93514556 274.1171875 125.4375 C273.41851563 124.963125 272.71984375 124.48875 272 124 C272 123.34 272 122.68 272 122 C271.46375 121.9175 270.9275 121.835 270.375 121.75 C267.13569613 120.72706194 264.72681321 118.99966302 262 117 C261.67 116.34 261.34 115.68 261 115 C260.113125 114.71125 259.22625 114.4225 258.3125 114.125 C254.69709802 112.89712763 252.03044526 111.30891067 249 109 C249 108.34 249 107.68 249 107 C246.03 106.01 246.03 106.01 243 105 C243 104.34 243 103.68 243 103 C242.01 103 241.02 103 240 103 C240 102.34 240 101.68 240 101 C239.278125 100.731875 238.55625 100.46375 237.8125 100.1875 C232.03058935 97.74624884 226.8813407 94.01362472 221.62109375 90.62109375 C219.45105914 89.278971 217.30381858 88.08957067 215 87 C215 86.34 215 85.68 215 85 C214.2575 84.71125 213.515 84.4225 212.75 84.125 C210.43260203 83.17697356 208.22082885 82.15154089 206 81 C206 80.34 206 79.68 206 79 C205.38125 78.855625 204.7625 78.71125 204.125 78.5625 C202 78 202 78 200 77 C200 76.34 200 75.68 200 75 C199.319375 74.7525 198.63875 74.505 197.9375 74.25 C188.64864865 70.2972973 188.64864865 70.2972973 187 67 C185.3383623 66.3208959 183.67072126 65.65643942 182 65 C180.28413631 63.94044722 178.59908237 62.83029671 176.9375 61.6875 C171.62195183 58.08351959 166.26502254 54.55412962 160.875 51.0625 C152.80398507 45.82552251 144.74134654 40.57583886 136.6875 35.3125 C136.12914459 34.94764496 135.57078918 34.58278992 134.99551392 34.20687866 C127.90367607 29.57121252 120.83127914 24.90886623 113.79492188 20.18945312 C109.42804081 17.26633716 105.00524472 14.44288483 100.54296875 11.66796875 C98 10 98 10 95.48828125 8.05078125 C94.25658203 7.09751953 94.25658203 7.09751953 93 6.125 C92.29875 5.55007813 91.5975 4.97515625 90.875 4.3828125 C82.84265668 0.51942998 72.26287651 1.87281787 63.51873398 1.92483521 C61.31424753 1.93781162 59.10982253 1.94416726 56.90530396 1.94897461 C52.22850804 1.96029616 47.55176371 1.97954277 42.875 2 C37.44131943 2.02372908 32.00766842 2.04406953 26.57394791 2.05593872 C24.41765562 2.06234995 22.26145648 2.0748516 20.10519409 2.08764648 C13.32599311 2.11262368 6.7206341 1.94194568 0 1 C0 0.67 0 0.34 0 0 Z " fill="#081F4E" transform="translate(643,646)"/>
<path d="M0 0 C2.84625 -0.0825 5.6925 -0.165 8.625 -0.25 C9.51010254 -0.28641602 10.39520508 -0.32283203 11.30712891 -0.36035156 C16.72003464 -0.43588615 19.70730576 0.41630932 24 4 C24.60972656 4.45761719 25.21945313 4.91523437 25.84765625 5.38671875 C28.52912038 9.14076853 27.50779182 14.63760664 27 19 C24.92547856 23.72990889 22.7404075 25.47091071 18.00366211 27.40454102 C14.53076968 28.4366337 11.15312791 28.31459856 7.5625 28.1875 C5.066875 28.125625 2.57125 28.06375 0 28 C0 18.76 0 9.52 0 0 Z " fill="#F2F3F5" transform="translate(120,989)"/>
<path d="M0 0 C3.01125 -0.0825 6.0225 -0.165 9.125 -0.25 C10.06230957 -0.28641602 10.99961914 -0.32283203 11.96533203 -0.36035156 C17.490781 -0.43331809 20.636704 0.28438075 25 4 C27.38713778 6.9441366 27.96192889 8.65101478 28.375 12.4375 C27.82490988 17.66335612 26.49970171 20.70416399 22.5 24.16015625 C17.86731376 26.59541877 14.25461127 26.44929382 9.125 26.25 C4.608125 26.12625 4.608125 26.12625 0 26 C0 17.42 0 8.84 0 0 Z " fill="#F8F8F9" transform="translate(191,989)"/>
<path d="M0 0 C2.51625 -0.061875 5.0325 -0.12375 7.625 -0.1875 C8.79603271 -0.22846802 8.79603271 -0.22846802 9.99072266 -0.27026367 C15.87206649 -0.33969309 19.80795105 1.15406404 24.375 5 C26.86125647 9.59001194 26.74103527 13.89509034 26 19 C24.35853034 22.46532484 23.27112302 24.30515104 19.90625 26.14453125 C15.94946512 27.30923003 12.28404501 27.21358666 8.1875 27.125 C4.1346875 27.063125 4.1346875 27.063125 0 27 C0 18.09 0 9.18 0 0 Z " fill="#F7F7F9" transform="translate(846,989)"/>
<path d="M0 0 C2.84625 -0.0825 5.6925 -0.165 8.625 -0.25 C9.51010254 -0.28641602 10.39520508 -0.32283203 11.30712891 -0.36035156 C16.6946415 -0.4355318 19.75911288 0.3724104 24 4 C26.97945822 8.46918733 26.48398029 12.76072132 26 18 C24.66638178 21.55631525 23.63025488 22.60320844 20.4375 24.61328125 C16.14330677 26.34559784 12.68883712 26.33715572 8.125 26.1875 C5.44375 26.125625 2.7625 26.06375 0 26 C0 17.42 0 8.84 0 0 Z " fill="#F0F1F4" transform="translate(1116,989)"/>
<path d="M0 0 C0.66 0 1.32 0 2 0 C2.18175781 0.6290625 2.36351562 1.258125 2.55078125 1.90625 C5.12953866 10.68724959 8.36794167 18.96862078 12.01171875 27.36328125 C13 30 13 30 13 33 C5.08 33 -2.84 33 -11 33 C-8.75 22.875 -8.75 22.875 -6.8359375 17.87109375 C-6.43632812 16.81728516 -6.03671875 15.76347656 -5.625 14.67773438 C-5.2125 13.60845703 -4.8 12.53917969 -4.375 11.4375 C-3.95476562 10.33341797 -3.53453125 9.22933594 -3.1015625 8.09179688 C-2.07321024 5.39237219 -1.0392595 2.69523999 0 0 Z " fill="#F2F2F5" transform="translate(483,995)"/>
<path d="M0 0 C4.65747928 0.52233413 7.81773314 2.62295332 11.5625 5.25 C12.91057943 6.1718595 14.2595851 7.09236555 15.609375 8.01171875 C16.32416016 8.50075684 17.03894531 8.98979492 17.77539062 9.49365234 C21.58446876 12.07288984 25.44982547 14.56455713 29.3125 17.0625 C37.22075911 22.18943524 45.11383762 27.33914326 53 32.5 C61.52230119 38.07634537 70.05203885 43.64093432 78.59375 49.1875 C85.88273468 53.92121865 93.16214013 58.66955184 100.44091797 63.41894531 C106.56037711 67.41110043 112.68460216 71.39581327 118.8125 75.375 C127.58854192 81.07487619 136.34800318 86.79994027 145.10498047 92.52905273 C153.69124117 98.14608392 162.28377341 103.75340735 170.88012695 109.35498047 C171.7743335 109.93779785 172.66854004 110.52061523 173.58984375 111.12109375 C174.37222412 111.6308374 175.15460449 112.14058105 175.96069336 112.66577148 C177.64617056 113.76850498 179.32411467 114.88274311 181 116 C180.67 116.66 180.34 117.32 180 118 C179.33282959 117.56357178 178.66565918 117.12714355 177.97827148 116.67749023 C175.38643671 114.98215612 172.79452378 113.28694159 170.20254517 111.59182739 C169.02477188 110.82157177 167.84701719 110.0512877 166.66928101 109.28097534 C160.34272148 105.14316863 154.0147716 101.00756221 147.6796875 96.8828125 C146.69758301 96.24327637 145.71547852 95.60374023 144.70361328 94.94482422 C142.78558242 93.69604716 140.86729065 92.44767073 138.94873047 91.19970703 C134.78602001 88.48776009 130.63281283 85.76505461 126.515625 82.984375 C125.50085083 82.29976196 125.50085083 82.29976196 124.46557617 81.60131836 C123.26215397 80.78632595 122.06142448 79.96733065 120.86450195 79.14282227 C116.73804058 76.34493509 112.48124635 74.16016554 108 72 C108 71.34 108 70.68 108 70 C106.02 69.34 104.04 68.68 102 68 C102 67.34 102 66.68 102 66 C101.34 65.773125 100.68 65.54625 100 65.3125 C96.06146437 63.58939066 92.60444303 61.33014499 89 59 C87.08451359 57.76899488 85.16780256 56.53989364 83.25 55.3125 C82.34765625 54.73113281 81.4453125 54.14976562 80.515625 53.55078125 C78.09386241 52.00245703 78.09386241 52.00245703 75.796875 50.91796875 C74 50 74 50 72 48 C69.39853631 46.4305924 66.7605319 44.93514556 64.1171875 43.4375 C63.41851563 42.963125 62.71984375 42.48875 62 42 C62 41.34 62 40.68 62 40 C61.46375 39.9175 60.9275 39.835 60.375 39.75 C57.13569613 38.72706194 54.72681321 36.99966302 52 35 C51.67 34.34 51.34 33.68 51 33 C50.113125 32.71125 49.22625 32.4225 48.3125 32.125 C44.69709802 30.89712763 42.03044526 29.30891067 39 27 C39 26.34 39 25.68 39 25 C37.02 24.34 35.04 23.68 33 23 C33 22.34 33 21.68 33 21 C32.01 21 31.02 21 30 21 C30 20.34 30 19.68 30 19 C29.278125 18.731875 28.55625 18.46375 27.8125 18.1875 C22.03058935 15.74624884 16.8813407 12.01362472 11.62109375 8.62109375 C9.45105914 7.278971 7.30381858 6.08957067 5 5 C5 4.34 5 3.68 5 3 C2.525 2.01 2.525 2.01 0 1 C0 0.67 0 0.34 0 0 Z " fill="#061C4B" transform="translate(853,728)"/>
<path d="M0 0 C0 0.66 0 1.32 0 2 C-2.01941146 3.35638993 -4.02084465 4.57600263 -6.1328125 5.7734375 C-6.76226776 6.13845367 -7.39172302 6.50346985 -8.04025269 6.87954712 C-10.0645223 8.05175275 -12.09444489 9.21372227 -14.125 10.375 C-16.13300737 11.53097925 -18.13976491 12.68907306 -20.14547729 13.84902954 C-21.39497865 14.57082146 -22.64597597 15.29003218 -23.89871216 16.00619507 C-27.70463439 18.19466477 -31.36596409 20.53806541 -35 23 C-41.22187277 26.86765064 -47.58200945 30.47070953 -54 34 C-59.24821779 36.91567655 -64.30197211 40.06817404 -69.3515625 43.31640625 C-71.87709558 44.92187049 -74.42819186 46.47004077 -77 48 C-77.74378906 48.44859375 -78.48757813 48.8971875 -79.25390625 49.359375 C-89.22860077 55.36782043 -99.29341445 61.21992451 -109.4375 66.9375 C-112.02559556 68.41143783 -114.54826291 69.96600724 -117.0625 71.5625 C-120.28089663 73.59517156 -123.55816154 75.36512673 -127 77 C-127.66 76.34 -128.32 75.68 -129 75 C-128.23671387 74.55309814 -127.47342773 74.10619629 -126.68701172 73.64575195 C-110.43816749 64.13052036 -94.20355919 54.59221563 -78 45 C-74.47957674 42.91597274 -70.95880053 40.83254467 -67.4375 38.75 C-66.54530762 38.22229004 -65.65311523 37.69458008 -64.73388672 37.15087891 C-59.51178692 34.06530106 -54.28278045 30.99177505 -49.046875 27.9296875 C-48.14665115 27.40307777 -48.14665115 27.40307777 -47.22824097 26.86582947 C-42.19110677 23.91928973 -42.19110677 23.91928973 -39.84698486 22.54946899 C-33.09383267 18.60199537 -26.35789184 14.62943927 -19.6640625 10.58203125 C-19.0808876 10.22981506 -18.49771271 9.87759888 -17.89686584 9.51470947 C-15.12423821 7.83912675 -12.35513983 6.15810031 -9.59057617 4.46923828 C-8.61838135 3.87997559 -7.64618652 3.29071289 -6.64453125 2.68359375 C-5.36606323 1.90326782 -5.36606323 1.90326782 -4.06176758 1.10717773 C-2 0 -2 0 0 0 Z " fill="#5CB1EA" transform="translate(491,662)"/>
<path d="M0 0 C0.99 0.495 0.99 0.495 2 1 C2 1.66 2 2.32 2 3 C-67.63 3 -137.26 3 -209 3 C-209 2.67 -209 2.34 -209 2 C-207.92894547 1.99576806 -206.85789095 1.99153612 -205.75438023 1.98717594 C-179.73366603 1.88413623 -153.71298038 1.77540793 -127.6923151 1.66066074 C-115.10909532 1.60530335 -102.52587271 1.55181729 -89.94262695 1.50268555 C-78.97938115 1.45987446 -68.01615643 1.41360436 -57.05294317 1.36312145 C-51.24412948 1.33649566 -45.43532004 1.31164206 -39.62648201 1.29092598 C-34.16583197 1.27139711 -28.70522216 1.24726481 -23.24460793 1.21950912 C-21.23417641 1.21011874 -19.22373605 1.20245068 -17.21329117 1.19658089 C-14.48106245 1.18835331 -11.74893229 1.17408639 -9.01673889 1.15821838 C-8.21033449 1.15724028 -7.40393008 1.15626217 -6.57308918 1.15525442 C-2.98977439 1.46116944 -2.98977439 1.46116944 0 0 Z " fill="#E9EFF4" transform="translate(727,643)"/>
<path d="M0 0 C2.86792974 2.67790693 4.86047959 5.18020794 6.69921875 8.640625 C7.18124756 9.53773193 7.66327637 10.43483887 8.15991211 11.35913086 C8.66401611 12.31311768 9.16812012 13.26710449 9.6875 14.25 C10.76482158 16.2569419 11.84295112 18.26345028 12.921875 20.26953125 C13.44845703 21.25260254 13.97503906 22.23567383 14.51757812 23.24853516 C16.44994707 26.83512904 18.43148026 30.3917043 20.4375 33.9375 C20.79078369 34.56325928 21.14406738 35.18901855 21.50805664 35.83374023 C22.67039021 37.89009754 23.83493433 39.94518941 25 42 C34.42052052 58.61906603 43.74395407 75.28892812 53 92 C52.01 92 51.02 92 50 92 C49.68361572 91.41734375 49.36723145 90.8346875 49.04125977 90.234375 C37.73956614 69.42611956 37.73956614 69.42611956 26 48.86328125 C25.49154541 47.99276123 24.98309082 47.12224121 24.45922852 46.2253418 C23.46123409 44.51996097 22.45925051 42.81690701 21.45288086 41.11645508 C21.00307861 40.34841553 20.55327637 39.58037598 20.08984375 38.7890625 C19.68628662 38.10537598 19.28272949 37.42168945 18.86694336 36.71728516 C18 35 18 35 18 33 C17.34 32.67 16.68 32.34 16 32 C14.76027184 29.7661502 13.61102044 27.54641883 12.5 25.25 C12.19191406 24.62867188 11.88382813 24.00734375 11.56640625 23.3671875 C9.89322256 19.96337176 8.3524595 16.5434439 7 13 C6.34 13 5.68 13 5 13 C4.16209211 11.21046815 3.32980604 9.41830305 2.5 7.625 C1.80390625 6.12839844 1.80390625 6.12839844 1.09375 4.6015625 C0 2 0 2 0 0 Z " fill="#5FB3EB" transform="translate(925,594)"/>
<path d="M0 0 C10.9625257 -0.32735828 21.92385162 -0.57460357 32.89030647 -0.72537041 C37.98529269 -0.79781166 43.07688761 -0.89568815 48.16992188 -1.05615234 C90.65413249 -2.35982966 90.65413249 -2.35982966 106.98251343 12.26644897 C110.19704977 15.02858026 113.76557444 17.1726215 117.375 19.375 C119.25035544 20.58278161 121.12551805 21.79086318 123 23 C121.28515625 23.6875 121.28515625 23.6875 119 24 C116.80859375 22.8125 116.80859375 22.8125 114.4375 21 C109.98001914 17.70107143 105.42909464 14.69755594 100.71875 11.7734375 C97.26788796 9.52244416 94.06032506 6.99431062 90.875 4.3828125 C82.84265668 0.51942998 72.26287651 1.87281787 63.51873398 1.92483521 C61.31424753 1.93781162 59.10982253 1.94416726 56.90530396 1.94897461 C52.22850804 1.96029616 47.55176371 1.97954277 42.875 2 C37.44131943 2.02372908 32.00766842 2.04406953 26.57394791 2.05593872 C24.41765562 2.06234995 22.26145648 2.0748516 20.10519409 2.08764648 C13.32599311 2.11262368 6.7206341 1.94194568 0 1 C0 0.67 0 0.34 0 0 Z " fill="#143060" transform="translate(643,646)"/>
<path d="M0 0 C3.08535448 1.48923576 6.00748698 3.16323942 8.9375 4.9375 C9.77152344 5.44152344 10.60554687 5.94554687 11.46484375 6.46484375 C12.30144531 6.97144531 13.13804687 7.47804688 14 8 C14.92941406 8.51691406 15.85882812 9.03382813 16.81640625 9.56640625 C17.53699219 10.03949219 18.25757813 10.51257813 19 11 C19 11.66 19 12.32 19 13 C19.53625 13.0825 20.0725 13.165 20.625 13.25 C23.8366675 14.26421079 26.24779613 16.0854234 29 18 C29.66 18.33 30.32 18.66 31 19 C31 19.66 31 20.32 31 21 C31.94875 21.309375 32.8975 21.61875 33.875 21.9375 C37 23 37 23 39 24 C39 24.66 39 25.32 39 26 C40.65 26.33 42.3 26.66 44 27 C44.495 28.485 44.495 28.485 45 30 C45.99 30 46.98 30 48 30 C48 30.66 48 31.32 48 32 C48.721875 32.268125 49.44375 32.53625 50.1875 32.8125 C52.99766383 33.99901362 55.48416557 35.27485639 58 37 C58 37.66 58 38.32 58 39 C53.97375876 37.56018262 50.70267059 35.61477309 47.16796875 33.21875 C46.34410675 32.66396721 46.34410675 32.66396721 45.50360107 32.09797668 C44.33329096 31.30955431 43.16430504 30.51916331 41.99655151 29.72695923 C38.95765636 27.66587892 35.90886476 25.61957926 32.859375 23.57421875 C32.26160751 23.17301315 31.66384003 22.77180756 31.04795837 22.35844421 C26.40111981 19.24819027 21.70012208 16.24151555 16.9375 13.3125 C3.75833061 5.1801259 3.75833061 5.1801259 0 2 C0 1.34 0 0.68 0 0 Z " fill="#59AEE5" transform="translate(780,677)"/>
<path d="M0 0 C17.49 0 34.98 0 53 0 C53 3.63 53 7.26 53 11 C46.4 11 39.8 11 33 11 C33 10.67 33 10.34 33 10 C39.27 10 45.54 10 52 10 C52 8.02 52 6.04 52 4 C51.01 4 50.02 4 49 4 C49 3.01 49 2.02 49 1 C33.16 1 17.32 1 1 1 C1 4.3 1 7.6 1 11 C0.67 11 0.34 11 0 11 C0 7.37 0 3.74 0 0 Z " fill="#000737" transform="translate(975,977)"/>
<path d="M0 0 C0 0.66 0 1.32 0 2 C-2.01941146 3.35638993 -4.02084465 4.57600263 -6.1328125 5.7734375 C-6.76226776 6.13845367 -7.39172302 6.50346985 -8.04025269 6.87954712 C-10.0645223 8.05175275 -12.09444489 9.21372227 -14.125 10.375 C-16.13300737 11.53097925 -18.13976491 12.68907306 -20.14547729 13.84902954 C-21.39497865 14.57082146 -22.64597597 15.29003218 -23.89871216 16.00619507 C-28.83957677 18.84727585 -33.53328093 21.96466889 -38.1875 25.25 C-41 27 -41 27 -44 27 C-42.64459516 22.93378547 -40.09539263 22.14029289 -36.5 20.25 C-27.57503076 15.41537885 -18.91504126 10.17132522 -10.25585938 4.87792969 C-9.21494141 4.24661133 -8.17402344 3.61529297 -7.1015625 2.96484375 C-6.16650879 2.3937085 -5.23145508 1.82257324 -4.26806641 1.23413086 C-2 0 -2 0 0 0 Z " fill="#4C95CC" transform="translate(491,662)"/>
<path d="M0 0 C-1.19893624 3.59680871 -1.8752488 3.75754387 -5.125 5.4375 C-5.94484375 5.87191406 -6.7646875 6.30632813 -7.609375 6.75390625 C-8.79273438 7.37072266 -8.79273438 7.37072266 -10 8 C-15.24821779 10.91567655 -20.30197211 14.06817404 -25.3515625 17.31640625 C-33.17933794 22.29246999 -33.17933794 22.29246999 -37 23 C-35.72276619 19.16829858 -34.46350601 18.82290221 -31.00390625 16.85546875 C-29.96943359 16.26056641 -28.93496094 15.66566406 -27.86914062 15.05273438 C-26.77794922 14.43720703 -25.68675781 13.82167969 -24.5625 13.1875 C-22.43848025 11.97321903 -20.31477911 10.75838057 -18.19140625 9.54296875 C-17.15516113 8.95435059 -16.11891602 8.36573242 -15.05126953 7.75927734 C-11.30277393 5.5979988 -7.61586617 3.34392822 -3.94116211 1.05981445 C-2 0 -2 0 0 0 Z " fill="#54A5DC" transform="translate(447,688)"/>
<path d="M0 0 C0.99 0 1.98 0 3 0 C2.67 0.99 2.34 1.98 2 3 C1.88237799 5.13091056 1.8231306 7.26520525 1.79467773 9.39916992 C1.78477814 10.04334366 1.77487854 10.6875174 1.76467896 11.35121155 C1.73312533 13.4775934 1.70833095 15.60399758 1.68359375 17.73046875 C1.66301891 19.20592322 1.6420223 20.68137186 1.62062073 22.15681458 C1.56545474 26.03819051 1.51602138 29.91961915 1.46777344 33.80108643 C1.41751842 37.76262091 1.36185324 41.72407894 1.30664062 45.68554688 C1.19912601 53.45696649 1.09766623 61.22844972 1 69 C0.67 69 0.34 69 0 69 C0 46.23 0 23.46 0 0 Z " fill="#0B234C" transform="translate(738,978)"/>
<path d="M0 0 C4.29 0 8.58 0 13 0 C13 5.94 13 11.88 13 18 C12.34 18 11.68 18 11 18 C10.67 13.05 10.34 8.1 10 3 C6.37 3 2.74 3 -1 3 C-0.67 2.01 -0.34 1.02 0 0 Z " fill="#06123D" transform="translate(801,977)"/>
<path d="M0 0 C1.65 0 3.3 0 5 0 C5 0.66 5 1.32 5 2 C7.65228812 3.07525194 10.28368454 4.09456151 13 5 C13 5.66 13 6.32 13 7 C13.70125 7.2475 14.4025 7.495 15.125 7.75 C18.37002459 9.16088026 21.10316737 10.97895398 24 13 C23.34 13.66 22.68 14.32 22 15 C18.70573352 12.87900949 15.41504467 10.7525323 12.125 8.625 C11.18785156 8.02171875 10.25070312 7.4184375 9.28515625 6.796875 C8.38925781 6.21679688 7.49335937 5.63671875 6.5703125 5.0390625 C5.32918701 4.23782959 5.32918701 4.23782959 4.06298828 3.42041016 C2 2 2 2 0 0 Z " fill="#50A9E2" transform="translate(891,751)"/>
<path d="M0 0 C1.32 0 2.64 0 4 0 C3.649375 0.556875 3.29875 1.11375 2.9375 1.6875 C1.59915036 4.37976845 1.59915036 4.37976845 3 9 C8.28 9.33 13.56 9.66 19 10 C19 10.33 19 10.66 19 11 C12.4 11 5.8 11 -1 11 C-0.67 7.37 -0.34 3.74 0 0 Z " fill="#152147" transform="translate(976,978)"/>
<path d="M0 0 C3.10554512 0.6006329 5.06431051 1.57745596 7.5625 3.5 C9.82900642 5.23647708 11.22472293 6.07490764 14 7 C14 7.66 14 8.32 14 9 C14.99 9 15.98 9 17 9 C17 9.66 17 10.32 17 11 C17.66 11 18.32 11 19 11 C19 11.66 19 12.32 19 13 C14.48473802 11.41145659 10.68482058 9.07705734 6.6875 6.5 C6.04232422 6.09652344 5.39714844 5.69304688 4.73242188 5.27734375 C3.11718738 4.24154258 1.55327117 3.12659452 0 2 C0 1.34 0 0.68 0 0 Z " fill="#51AAE3" transform="translate(842,718)"/>
<path d="M0 0 C0.33 0.66 0.66 1.32 1 2 C1.66 2 2.32 2 3 2 C3.02721176 3.89575251 3.04649136 5.79161979 3.0625 7.6875 C3.07410156 8.74324219 3.08570313 9.79898438 3.09765625 10.88671875 C3.00865425 13.72410262 2.64939838 16.2438919 2 19 C1.67 19 1.34 19 1 19 C0.17648136 12.61773055 -0.12086218 6.43255401 0 0 Z " fill="#06163C" transform="translate(801,1003)"/>
<path d="M0 0 C1.32 0 2.64 0 4 0 C4 3.3 4 6.6 4 10 C-2.6 10 -9.2 10 -16 10 C-16 9.67 -16 9.34 -16 9 C-9.73 9 -3.46 9 3 9 C3 7.02 3 5.04 3 3 C2.01 3 1.02 3 0 3 C0 2.01 0 1.02 0 0 Z " fill="#051338" transform="translate(1024,978)"/>
<path d="M0 0 C6.27 0 12.54 0 19 0 C19 0.33 19 0.66 19 1 C17.35 1.33 15.7 1.66 14 2 C14 2.33 14 2.66 14 3 C7.565 3.495 7.565 3.495 1 4 C0.67 2.68 0.34 1.36 0 0 Z " fill="#E0E1EA" transform="translate(191,989)"/>
<path d="M0 0 C0 0.66 0 1.32 0 2 C-2.43133054 3.63863397 -4.84771535 5.14921334 -7.375 6.625 C-8.07367188 7.04523437 -8.77234375 7.46546875 -9.4921875 7.8984375 C-14.72859172 11 -14.72859172 11 -17 11 C-17 10.34 -17 9.68 -17 9 C-14.56866946 7.36136603 -12.15228465 5.85078666 -9.625 4.375 C-8.57699219 3.74464844 -8.57699219 3.74464844 -7.5078125 3.1015625 C-2.27140828 0 -2.27140828 0 0 0 Z " fill="#438AC1" transform="translate(491,662)"/>
<path d="M0 0 C2.58479229 3.08186773 4.9892807 6.28074966 7.3125 9.5625 C7.84488281 10.30628906 8.37726562 11.05007813 8.92578125 11.81640625 C10.22082387 14.44887471 9.82640404 15.28457079 9 18 C7.49185257 15.56721456 5.99335653 13.12933973 4.5 10.6875 C4.07074219 9.99720703 3.64148438 9.30691406 3.19921875 8.59570312 C2.79316406 7.92861328 2.38710938 7.26152344 1.96875 6.57421875 C1.40317383 5.65515747 1.40317383 5.65515747 0.82617188 4.7175293 C0 3 0 3 0 0 Z " fill="#76B3E0" transform="translate(714,618)"/>
<path d="M0 0 C2 2 2 2 2 5 C-0.97 5 -3.94 5 -7 5 C-7 3.68 -7 2.36 -7 1 C-5.5459375 1.0309375 -5.5459375 1.0309375 -4.0625 1.0625 C-1.12534105 1.35618499 -1.12534105 1.35618499 0 0 Z " fill="#091C3A" transform="translate(363,1050)"/>
<path d="M0 0 C2.125 0.9375 2.125 0.9375 4 2 C3.60196439 4.88575819 3.20990931 5.82189513 0.9375 7.75 C0.298125 8.1625 -0.34125 8.575 -1 9 C-1.33 8.34 -1.66 7.68 -2 7 C-1.0625 4.875 -1.0625 4.875 0 3 C-0.33 3.33 -0.66 3.66 -1 4 C-1.33 3.01 -1.66 2.02 -2 1 C-1.34 0.67 -0.68 0.34 0 0 Z " fill="#1A2447" transform="translate(331,983)"/>
<path d="M0 0 C0.66 0 1.32 0 2 0 C1.56826496 6.15222436 0.34594658 9.81917949 -3 15 C-4.57156655 11.8568669 -3.11705576 9.634536 -2.0625 6.375 C-1.68222656 5.18648437 -1.30195312 3.99796875 -0.91015625 2.7734375 C-0.60980469 1.85820313 -0.30945313 0.94296875 0 0 Z " fill="#08153E" transform="translate(717,1024)"/>
<path d="M0 0 C0.66 0 1.32 0 2 0 C2.99808262 3.21937927 3.01849014 5.84301752 2.6875 9.1875 C2.60886719 10.06792969 2.53023438 10.94835937 2.44921875 11.85546875 C2.30097656 12.56316406 2.15273438 13.27085937 2 14 C1.01 14.495 1.01 14.495 0 15 C0 10.05 0 5.1 0 0 Z " fill="#F1F1F4" transform="translate(368,1005)"/>
<path d="M0 0 C3.64553172 1.2808625 5.16671013 2.16671013 8 5 C3.05 5 -1.9 5 -7 5 C-7 4.67 -7 4.34 -7 4 C-4.36 3.67 -1.72 3.34 1 3 C0.67 2.01 0.34 1.02 0 0 Z " fill="#071A4A" transform="translate(1075,872)"/>
<path d="M0 0 C0.33 0 0.66 0 1 0 C1.144375 0.9075 1.28875 1.815 1.4375 2.75 C1.86409473 5.21476956 2.35074221 7.58847107 3 10 C2.01 10.495 2.01 10.495 1 11 C0.34444881 13.52733235 0.34444881 13.52733235 0 16 C-0.66 16 -1.32 16 -2 16 C-1.34 10.72 -0.68 5.44 0 0 Z " fill="#2D3C61" transform="translate(707,1013)"/>
<path d="M0 0 C0.66 0 1.32 0 2 0 C0.92598892 2.91517292 0.22189824 4.77810176 -2 7 C-2.99 7 -3.98 7 -5 7 C-5.33 7.99 -5.66 8.98 -6 10 C-7.32 9.67 -8.64 9.34 -10 9 C-9.36191406 8.51789062 -8.72382813 8.03578125 -8.06640625 7.5390625 C-7.24011719 6.90742187 -6.41382813 6.27578125 -5.5625 5.625 C-4.73878906 4.99851562 -3.91507812 4.37203125 -3.06640625 3.7265625 C-0.91471908 2.16246096 -0.91471908 2.16246096 0 0 Z " fill="#E2E5EC" transform="translate(335,986)"/>
<path d="M0 0 C1.32 0 2.64 0 4 0 C3.68289062 0.51046875 3.36578125 1.0209375 3.0390625 1.546875 C1.66023727 4.80214659 1.5706427 7.72843132 1.375 11.25 C1.30023438 12.51328125 1.22546875 13.7765625 1.1484375 15.078125 C1.09945312 16.04234375 1.05046875 17.0065625 1 18 C0.67 18 0.34 18 0 18 C0 12.06 0 6.12 0 0 Z " fill="#0D244D" transform="translate(179,978)"/>
<path d="M0 0 C0.66 0 1.32 0 2 0 C2.86627399 1.59766103 3.71766465 3.20339944 4.5625 4.8125 C5.27599609 6.15248047 5.27599609 6.15248047 6.00390625 7.51953125 C7 10 7 10 6 13 C4.99193149 11.40089132 3.99379615 9.79551738 3 8.1875 C2.443125 7.29417969 1.88625 6.40085937 1.3125 5.48046875 C0 3 0 3 0 0 Z " fill="#132350" transform="translate(765,1025)"/>
<path d="M0 0 C0.721875 0.309375 1.44375 0.61875 2.1875 0.9375 C4.9241064 2.10148492 4.9241064 2.10148492 7.6875 2.3125 C8.8321875 2.6528125 8.8321875 2.6528125 10 3 C11.3125 5.5625 11.3125 5.5625 12 8 C7.44328408 6.48109469 3.68276708 4.04597738 0 1 C0 0.67 0 0.34 0 0 Z " fill="#4BA4DE" transform="translate(1070,867)"/>
<path d="M0 0 C-1.22025063 3.6607519 -2.126491 3.92339441 -5.4375 5.6875 C-6.64212891 6.34298828 -6.64212891 6.34298828 -7.87109375 7.01171875 C-10 8 -10 8 -12 8 C-12 7.34 -12 6.68 -12 6 C-9.8828125 4.4921875 -9.8828125 4.4921875 -7.125 2.875 C-6.22007812 2.33617187 -5.31515625 1.79734375 -4.3828125 1.2421875 C-2 0 -2 0 0 0 Z " fill="#519ED7" transform="translate(447,688)"/>
<path d="M0 0 C2.52588702 2.36292656 3.88820837 3.66462511 5 7 C3.68 7.99 2.36 8.98 1 10 C0.67 6.7 0.34 3.4 0 0 Z " fill="#E4E6EB" transform="translate(750,1004)"/>
<path d="M0 0 C2.97 0.33 5.94 0.66 9 1 C6.0085282 2.4957359 3.099459 3.77652934 0 5 C-0.99 5.495 -0.99 5.495 -2 6 C-1.34 4.02 -0.68 2.04 0 0 Z " fill="#1A2B51" transform="translate(477,977)"/>
<path d="M0 0 C4.10958767 1.45044271 7.43258745 3.51110752 11 6 C9.234375 6.64453125 9.234375 6.64453125 7 7 C5.078125 6.07421875 5.078125 6.07421875 3.25 4.6875 C2.63640625 4.23761719 2.0228125 3.78773438 1.390625 3.32421875 C0.93171875 2.88722656 0.4728125 2.45023438 0 2 C0 1.34 0 0.68 0 0 Z " fill="#0B2453" transform="translate(778,678)"/>
<path d="M0 0 C0.6875 1.75 0.6875 1.75 1 4 C-0.4375 6.25 -0.4375 6.25 -2 8 C-2.99 7.67 -3.98 7.34 -5 7 C-5.33 6.01 -5.66 5.02 -6 4 C-5.38125 3.896875 -4.7625 3.79375 -4.125 3.6875 C-1.63473516 3.12474627 -1.63473516 3.12474627 0 0 Z " fill="#18254D" transform="translate(778,1034)"/>
<path d="M0 0 C0.33 0.99 0.66 1.98 1 3 C0.01 3.66 -0.98 4.32 -2 5 C-2.73606499 8.56769552 -2.73606499 8.56769552 -3 12 C-3.33 12 -3.66 12 -4 12 C-4.22893297 8.96663814 -4.36475845 6.02534949 -4 3 C-2 0.9375 -2 0.9375 0 0 Z " fill="#D7DAE3" transform="translate(305,989)"/>
<path d="M0 0 C0.66 0 1.32 0 2 0 C2 0.66 2 1.32 2 2 C4.64 2.33 7.28 2.66 10 3 C10 3.33 10 3.66 10 4 C7.03 4 4.06 4 1 4 C0.67 2.68 0.34 1.36 0 0 Z " fill="#030D3A" transform="translate(219,1052)"/>
<path d="M0 0 C3.37503669 1.1858237 5.64722731 2.27573689 8 5 C2.25 4.125 2.25 4.125 0 3 C0 2.01 0 1.02 0 0 Z " fill="#17234E" transform="translate(217,979)"/>
<path d="M0 0 C0.89203125 0.10183594 1.7840625 0.20367188 2.703125 0.30859375 C3.37859375 0.39238281 4.0540625 0.47617187 4.75 0.5625 C4.75 0.8925 4.75 1.2225 4.75 1.5625 C2.79310341 1.78392255 0.83438048 1.9892568 -1.125 2.1875 C-2.76082031 2.36152344 -2.76082031 2.36152344 -4.4296875 2.5390625 C-5.82574219 2.55066406 -5.82574219 2.55066406 -7.25 2.5625 C-7.91 1.9025 -8.57 1.2425 -9.25 0.5625 C-5.98086376 -0.46865279 -3.38958652 -0.4013984 0 0 Z " fill="#122654" transform="translate(309.25,976.4375)"/>
<path d="M0 0 C0.99 0 1.98 0 3 0 C2.67 3.63 2.34 7.26 2 11 C1.67 11 1.34 11 1 11 C0.67 7.37 0.34 3.74 0 0 Z " fill="#142957" transform="translate(562,1005)"/>
<path d="M0 0 C0.66 0 1.32 0 2 0 C2.33 1.65 2.66 3.3 3 5 C1.35 5.66 -0.3 6.32 -2 7 C-1.34 4.69 -0.68 2.38 0 0 Z " fill="#C5CAD9" transform="translate(483,995)"/>
<path d="M0 0 C4.40114397 0.50298788 6.71195019 2.08772731 10 5 C9.01 5.495 9.01 5.495 8 6 C6.0546875 5.0390625 6.0546875 5.0390625 3.875 3.625 C3.15054688 3.16351562 2.42609375 2.70203125 1.6796875 2.2265625 C1.12539063 1.82179688 0.57109375 1.41703125 0 1 C0 0.67 0 0.34 0 0 Z " fill="#51A9E2" transform="translate(876,741)"/>
<path d="M0 0 C3 1 3 1 5 4 C5 4.99 5 5.98 5 7 C2 6 2 6 0 3 C0 2.01 0 1.02 0 0 Z " fill="#0B183F" transform="translate(389,1035)"/>
<path d="M0 0 C0.99 0 1.98 0 3 0 C3.309375 0.78375 3.61875 1.5675 3.9375 2.375 C4.92875038 4.92330128 4.92875038 4.92330128 6 7 C5.34 7.66 4.68 8.32 4 9 C0 2.25 0 2.25 0 0 Z " fill="#17224A" transform="translate(1129,1030)"/>
<path d="M0 0 C0.66 0.99 1.32 1.98 2 3 C0.63016497 6.16115776 0.0109362 6.9927092 -3 9 C-2.01 6.03 -1.02 3.06 0 0 Z " fill="#314168" transform="translate(469,997)"/>
<path d="M0 0 C0.66 0.33 1.32 0.66 2 1 C1.25 3.375 1.25 3.375 0 6 C-1.98 6.99 -1.98 6.99 -4 8 C-2.68 5.36 -1.36 2.72 0 0 Z " fill="#172855" transform="translate(415,982)"/>
<path d="M0 0 C2.97 1.65 5.94 3.3 9 5 C5 6 5 6 2.25 4.75 C1.5075 4.1725 0.765 3.595 0 3 C0 2.01 0 1.02 0 0 Z " fill="#092455" transform="translate(961,797)"/>
<path d="M0 0 C0.66 0.33 1.32 0.66 2 1 C-0.52788007 3.79872437 -2.20411134 5.45773019 -6 6 C-5 3 -5 3 -2.5625 1.25 C-1.716875 0.8375 -0.87125 0.425 0 0 Z " fill="#56A8E1" transform="translate(416,705)"/>
<path d="M0 0 C1.32 1.65 2.64 3.3 4 5 C3.67 5.66 3.34 6.32 3 7 C1.68 6.67 0.36 6.34 -1 6 C-0.67 4.02 -0.34 2.04 0 0 Z " fill="#253059" transform="translate(1154,1048)"/>
<path d="M0 0 C0.66 1.32 1.32 2.64 2 4 C1.01 4.66 0.02 5.32 -1 6 C-1.66 5.67 -2.32 5.34 -3 5 C-1.125 1.125 -1.125 1.125 0 0 Z " fill="#0F1D41" transform="translate(704,1045)"/>
<path d="M0 0 C0.66 0.99 1.32 1.98 2 3 C0.8125 4.5 0.8125 4.5 -1 6 C-3.6875 6.1875 -3.6875 6.1875 -6 6 C-5.195625 5.38125 -4.39125 4.7625 -3.5625 4.125 C-0.96125481 2.25835959 -0.96125481 2.25835959 0 0 Z " fill="#1D2D57" transform="translate(323,1039)"/>
<path d="M0 0 C0.66 1.32 1.32 2.64 2 4 C1.01 4.66 0.02 5.32 -1 6 C-1.66 5.67 -2.32 5.34 -3 5 C-3 4.01 -3 3.02 -3 2 C-2.01 1.34 -1.02 0.68 0 0 Z " fill="#172546" transform="translate(1148,1015)"/>
<path d="M0 0 C0.9075 0.37125 1.815 0.7425 2.75 1.125 C2.42 1.785 2.09 2.445 1.75 3.125 C-2.705 2.135 -2.705 2.135 -7.25 1.125 C-3.25 -0.875 -3.25 -0.875 0 0 Z " fill="#0F2152" transform="translate(695.25,977.875)"/>
</svg>
